<?xml version="1.0" encoding="UTF-8" standalone="no"?>
<svg
   width="1000"
   height="1000"
   version="1.1"
   viewBox="-1.005 -1.005 1000 1000"
   id="svg17"
   sodipodi:docname="cloudflareddns.svg"
   inkscape:version="1.1.1 (c3084ef, 2021-09-22)"
   xmlns:inkscape="http://www.inkscape.org/namespaces/inkscape"
   xmlns:sodipodi="http://sodipodi.sourceforge.net/DTD/sodipodi-0.dtd"
   xmlns="http://www.w3.org/2000/svg"
   xmlns:svg="http://www.w3.org/2000/svg">
  <defs
     id="defs21" />
  <sodipodi:namedview
     id="namedview19"
     pagecolor="#ffffff"
     bordercolor="#666666"
     borderopacity="1.0"
     inkscape:pageshadow="2"
     inkscape:pageopacity="0.0"
     inkscape:pagecheckerboard="0"
     showgrid="false"
     inkscape:zoom="0.607"
     inkscape:cx="365.73311"
     inkscape:cy="202.63591"
     inkscape:window-width="1912"
     inkscape:window-height="1152"
     inkscape:window-x="2090"
     inkscape:window-y="94"
     inkscape:window-maximized="0"
     inkscape:current-layer="svg17" />
  <g
     transform="matrix(4.999975,0,0,4.999975,4.004975,277.87861)"
     id="g15">
    <path
       d="m 180.32,42.979 -23.237,-5.394 -4.149,-1.66 -106.64,0.83 v 51.453 l 134.03,0.415 z"
       fill="#ffffff"
       id="path9" />
    <path
       d="m 136.76,83.643 c 1.245,-4.149 0.83,-8.299 -1.245,-10.788 -2.075,-2.489 -4.979,-4.149 -8.714,-4.564 l -72.2,-0.83 c -0.415,0 -0.83,-0.415 -1.245,-0.415 -0.415,-0.415 -0.415,-0.83 0,-1.245 0.415,-0.83 0.83,-1.245 1.66,-1.245 l 72.614,-0.83 c 8.714,-0.415 17.842,-7.469 21.162,-15.768 l 4.149,-10.788 c 0,-0.415 0.415,-0.83 0,-1.245 -4.564,-21.162 -23.652,-36.93 -46.058,-36.93 -20.747,0 -38.589,13.278 -44.814,31.95 -4.149,-2.905 -9.129,-4.564 -14.938,-4.149 -9.959,0.83 -17.842,9.129 -19.087,19.087 -0.415,2.49 0,4.979 0.415,7.469 -16.183,0.415 -29.461,13.693 -29.461,30.291 0,1.66 0,2.905 0.415,4.564 0,0.83 0.83,1.245 1.245,1.245 h 133.2 c 0.83,0 1.66,-0.415 1.66,-1.245 z"
       fill="#f48120"
       id="path11" />
    <path
       d="m 159.58,37.169 h -2.075 c -0.415,0 -0.83,0.415 -1.245,0.83 l -2.905,9.959 c -1.245,4.149 -0.83,8.299 1.245,10.788 2.075,2.489 4.979,4.149 8.714,4.564 l 15.353,0.83 c 0.415,0 0.83,0.415 1.245,0.415 0.415,0.415 0.415,0.83 0,1.245 -0.415,0.83 -0.83,1.245 -1.66,1.245 l -15.768,0.83 c -8.714,0.415 -17.842,7.469 -21.162,15.768 l -0.83,3.734 c -0.415,0.415 0,1.245 0.83,1.245 h 54.772 c 0.83,0 1.245,-0.415 1.245,-1.245 0.83,-3.32 1.66,-7.054 1.66,-10.788 0,-21.577 -17.842,-39.419 -39.419,-39.419"
       fill="#faad3f"
       id="path13" />
  </g>
</svg>
